<svg xmlns="http://www.w3.org/2000/svg" width="32" height="32" viewBox="0 0 32 32">
<g>
<path d="M 21.97 29.78 C22.03,29.76 22.09,29.73 22.14,29.70 C24.39,28.68 24.65,28.15 23.89,26.15 C23.21,24.38 22.55,23.99 21.24,24.58 C20.71,24.82 20.15,25.00 19.58,25.11 C21.85,24.23 24.04,22.32 24.98,20.05 C25.89,17.86 26.91,17.00 28.62,17.00 C34.11,17.00 29.26,26.74 22.33,29.64 C22.21,29.69 22.09,29.73 21.97,29.78 ZM 12.03 23.41 C9.67,21.80 8.00,19.29 8.00,16.50 C8.00,18.79 9.71,21.51 12.03,23.41 ZM 12.16 29.94 C14.34,30.81 16.71,31.05 18.99,30.67 C16.65,31.11 14.47,30.86 12.16,29.94 Z" fill="rgba(46,65,118,1)"/>
<path d="M 12.16 29.94 C8.07,28.30 5.22,24.36 4.04,20.04 C4.70,22.10 5.78,24.14 7.27,25.98 C8.50,27.50 9.63,28.63 9.79,28.50 C9.94,28.37 9.12,25.85 7.97,22.91 C6.49,19.18 6.05,16.52 6.51,14.10 C6.93,11.86 7.43,11.08 7.94,11.90 C8.56,12.91 8.83,12.89 9.23,11.83 C9.52,11.09 11.33,9.92 13.25,9.23 C13.31,9.20 13.37,9.18 13.43,9.16 C9.48,10.74 8.00,12.75 8.00,16.50 C8.00,22.03 14.56,26.43 19.99,25.02 C19.12,25.64 18.15,26.66 17.12,28.05 C15.87,29.74 15.37,30.47 15.58,30.78 C14.41,30.66 13.26,30.38 12.16,29.94 ZM 8.19 5.71 C11.62,3.20 15.02,2.41 16.02,4.04 C16.47,4.76 18.29,5.83 20.07,6.42 C22.25,7.15 24.29,8.80 25.53,10.56 C24.22,8.77 22.00,7.06 19.52,6.23 C16.15,5.11 15.35,5.18 12.38,6.94 C10.54,8.03 9.07,8.60 9.13,8.21 C9.45,6.08 9.17,5.26 8.19,5.71 ZM 23.96 13.17 C22.75,11.19 21.28,9.82 19.62,9.09 C21.28,9.79 22.73,11.15 23.96,13.17 ZM 22.56 24.37 C22.70,24.41 22.84,24.49 22.97,24.60 C22.84,24.50 22.70,24.43 22.56,24.37 Z" fill="rgba(54,144,222,1)"/>
<path d="M 17.12 28.05 C20.54,23.42 23.24,23.00 24.27,26.92 C24.66,28.42 24.06,29.13 21.74,29.94 C20.07,30.52 17.86,31.00 16.82,31.00 C15.05,31.00 15.07,30.83 17.12,28.05 Z" fill="rgba(64,110,160,1)"/>
<path d="M 7.27 25.98 C2.22,19.75 1.90,11.32 6.54,6.96 C8.83,4.81 9.58,5.17 9.13,8.21 C9.07,8.60 10.54,8.03 12.38,6.94 C14.41,5.74 15.42,5.33 16.93,5.54 C13.64,5.57 8.64,8.83 8.17,11.54 C8.13,11.75 8.10,11.94 8.07,12.11 C8.03,12.05 7.99,11.98 7.94,11.90 C7.43,11.08 6.93,11.86 6.51,14.10 C6.05,16.52 6.49,19.18 7.97,22.91 C9.12,25.85 9.94,28.37 9.79,28.50 C9.63,28.63 8.50,27.50 7.27,25.98 ZM 16.19 8.56 C15.26,8.63 14.28,8.85 13.25,9.23 C12.21,9.60 11.19,10.12 10.44,10.64 C12.14,9.25 14.18,8.57 16.19,8.56 ZM 26.42 15.02 C25.97,15.95 25.55,15.71 24.39,13.87 C25.21,14.95 25.97,15.28 26.42,15.02 ZM 9.25 11.80 C9.24,11.81 9.24,11.82 9.23,11.83 C8.99,12.48 8.79,12.74 8.54,12.61 C8.70,12.45 8.91,12.21 9.16,11.90 C9.19,11.87 9.22,11.84 9.25,11.80 Z" fill="rgba(78,176,236,1)"/>
<path d="M 23.78 12.95 C20.70,7.57 13.24,7.04 9.16,11.90 C7.96,13.33 7.86,13.30 8.17,11.54 C8.69,8.56 14.71,4.90 17.88,5.63 C21.78,6.53 24.95,8.80 26.22,11.58 C27.94,15.35 25.84,16.53 23.78,12.95 Z" fill="rgba(99,94,220,1)"/>
</g>
</svg>